<svg xmlns="http://www.w3.org/2000/svg" version="1.0" preserveAspectRatio="xMidYMid meet" viewBox="265 103.8 821.5 230.04">

<g transform="translate(0.000000,442.000000) scale(0.100000,-0.100000)" fill="#000000" stroke="none">
<path d="M3120 3373 c-260 -43 -470 -291 -470 -553 1 -255 184 -487 431 -544 35 -9 65 -14 66 -12 2 2 -4 17 -14 34 -13 23 -31 34 -77 48 -201 61 -346 259 -346 474 0 288 248 519 534 497 186 -14 360 -142 427 -314 33 -87 38 -239 10 -331 -34 -114 -115 -217 -223 -285 -16 -10 -28 -22 -28 -27 0 -5 47 -85 104 -177 l103 -168 -85 -3 c-47 -2 -90 -1 -97 2 -6 2 -69 96 -140 209 l-129 205 -41 6 c-113 17 -237 111 -291 221 -26 55 -29 69 -29 165 0 99 2 110 32 171 39 80 111 150 191 187 50 24 69 27 162 27 96 0 110 -3 164 -29 241 -119 296 -446 107 -636 -27 -27 -55 -50 -60 -50 -6 0 -15 9 -21 21 -10 18 -6 25 32 59 181 159 137 456 -82 559 -74 35 -201 37 -272 4 -66 -30 -143 -105 -175 -172 -24 -48 -28 -68 -28 -141 0 -101 20 -154 85 -224 57 -61 94 -83 182 -105 l73 -18 128 -199 c70 -110 131 -205 136 -212 4 -8 21 -12 40 -10 l32 3 -153 242 -153 243 -36 0 c-97 0 -194 59 -247 148 -24 41 -27 57 -27 132 0 68 5 93 22 126 65 122 207 181 335 139 67 -21 113 -56 149 -113 84 -132 44 -309 -87 -388 l-52 -30 42 -67 c23 -36 45 -69 48 -73 4 -4 30 8 57 25 249 160 279 526 59 716 -147 126 -352 149 -520 58 -69 -37 -153 -130 -191 -210 -30 -64 -32 -74 -32 -183 0 -109 2 -119 32 -183 34 -71 113 -163 172 -200 20 -12 70 -33 111 -47 l75 -26 130 -207 130 -206 163 -1 c89 0 162 2 162 5 0 3 -50 87 -111 188 -62 100 -114 186 -116 190 -3 5 27 38 66 75 126 119 182 246 183 412 0 112 -21 191 -79 289 -110 185 -353 299 -563 264z"/>
<path d="M4104 3366 c-3 -8 -4 -183 -2 -388 5 -404 8 -428 65 -525 82 -141 274 -214 488 -185 114 15 191 51 254 116 112 119 121 164 121 629 l0 367 -29 0 -30 0 -3 -392 c-3 -387 -4 -394 -27 -452 -33 -81 -107 -156 -186 -186 -80 -31 -272 -34 -351 -7 -114 39 -188 110 -221 211 -14 43 -17 109 -21 409 l-4 357 81 0 81 0 0 -331 c0 -369 3 -392 60 -449 44 -44 95 -60 189 -60 83 0 131 17 179 63 65 62 66 67 70 440 4 327 4 337 23 337 20 0 20 -8 17 -357 -3 -346 -4 -359 -25 -399 -47 -88 -136 -134 -259 -134 -140 0 -226 42 -273 135 -26 49 -26 50 -31 380 l-5 330 -25 0 -25 0 0 -330 c0 -371 4 -395 71 -474 65 -76 168 -108 322 -99 142 8 226 59 279 166 l28 57 3 393 3 392 -80 0 -80 0 -3 -362 c-3 -342 -4 -365 -23 -397 -35 -60 -67 -76 -160 -79 -64 -3 -91 0 -120 14 -71 33 -69 25 -75 444 l-5 375 -133 3 c-109 2 -133 0 -138 -12z"/>
<path d="M5360 2820 l0 -561 138 3 137 3 0 555 0 555 -27 3 -28 3 0 -530 0 -531 -80 0 -80 0 0 500 0 500 25 0 25 0 0 -475 0 -475 30 0 30 0 0 505 0 505 -85 0 -85 0 0 -560z"/>
<path d="M5977 3373 c-4 -3 -7 -17 -7 -30 l0 -23 298 -2 298 -3 -246 -470 -247 -470 30 -3 c16 -2 33 0 38 5 8 8 505 962 516 989 4 12 -47 14 -334 14 -187 0 -343 -3 -346 -7z"/>
<path d="M6712 3363 c-5 -10 -120 -230 -255 -488 -135 -259 -249 -479 -253 -488 -6 -16 9 -17 190 -17 l196 0 0 30 0 29 -148 3 -148 3 243 465 c134 256 243 468 243 472 0 16 -59 8 -68 -9z"/>
<path d="M8023 2837 c-133 -298 -245 -550 -248 -559 -7 -17 4 -18 147 -18 l155 0 28 65 27 65 159 2 158 3 -12 25 -13 25 -164 0 -164 0 -25 -62 -24 -63 -94 0 c-52 0 -93 4 -91 9 2 5 100 229 218 500 185 422 218 491 236 491 18 0 51 -68 241 -500 l221 -501 -85 3 -85 3 -50 113 -51 112 -246 0 -247 0 -37 -87 c-21 -49 -37 -91 -37 -95 0 -5 15 -8 33 -8 30 0 34 4 57 63 l25 62 211 3 211 2 49 -115 49 -115 143 0 c107 0 142 3 142 13 0 6 -111 258 -246 560 l-247 547 -51 0 -51 0 -242 -543z"/>
<path d="M9120 2820 l0 -561 138 3 137 3 3 191 2 192 123 4 c142 4 195 22 264 90 52 51 81 116 92 209 18 142 -18 259 -104 337 -84 76 -118 85 -347 90 l-198 4 0 -262 0 -262 158 4 c187 5 223 17 253 82 23 51 24 84 3 135 -25 64 -51 75 -186 79 l-118 4 0 -96 0 -96 30 0 30 0 0 65 0 65 80 0 c67 0 83 -3 100 -20 29 -29 28 -99 -3 -128 -21 -20 -34 -22 -155 -22 l-132 0 0 195 0 195 138 0 c259 0 348 -49 389 -214 33 -135 -10 -282 -101 -343 -66 -45 -103 -53 -248 -53 l-128 0 -2 -192 -3 -193 -77 -3 -78 -3 0 531 0 530 -30 0 -30 0 0 -560z"/>
<path d="M10110 2820 l0 -560 135 0 135 0 2 193 3 192 125 5 c111 5 131 8 182 33 69 34 120 90 150 166 19 46 23 76 23 166 0 98 -3 116 -26 165 -33 71 -70 114 -126 147 -72 42 -140 53 -331 53 l-172 0 2 -257 3 -258 160 0 c179 1 209 9 246 68 16 25 19 45 17 94 -6 107 -55 136 -218 131 l-95 -3 -3 -93 -3 -93 33 3 33 3 3 63 3 62 73 0 c96 0 121 -17 121 -85 0 -76 -18 -85 -181 -85 l-134 0 0 196 0 196 168 -4 c149 -3 173 -6 220 -27 101 -45 152 -137 152 -276 0 -95 -22 -167 -68 -217 -61 -68 -104 -82 -272 -88 l-145 -5 -3 -192 -2 -193 -75 0 -75 0 0 530 0 530 -30 0 -30 0 0 -560z"/>
<path d="M5977 3273 c-4 -3 -7 -42 -7 -85 l0 -78 158 0 159 0 11 25 c7 14 12 28 12 30 0 3 -63 5 -140 5 l-140 0 0 25 0 25 180 0 c99 0 180 -2 180 -4 0 -3 -108 -211 -240 -464 -131 -252 -242 -466 -246 -475 -6 -16 24 -17 395 -17 l401 0 0 140 0 140 -144 0 c-138 0 -146 -1 -160 -22 -9 -12 -16 -26 -16 -30 0 -5 59 -8 130 -8 l130 0 0 -80 0 -80 -326 0 -326 0 45 83 c121 225 447 855 447 865 0 9 -65 12 -248 12 -137 0 -252 -3 -255 -7z"/>
<path d="M9340 3240 l0 -30 118 0 c173 -1 230 -34 252 -148 19 -102 -15 -188 -89 -224 -40 -19 -66 -22 -218 -26 l-173 -5 0 -223 0 -224 30 0 30 0 0 199 0 199 163 4 c144 3 167 6 204 26 45 23 84 68 103 117 20 51 16 174 -8 228 -46 103 -119 137 -299 137 l-113 0 0 -30z"/>
<path d="M10328 3264 c-5 -4 -8 -17 -8 -30 0 -22 3 -22 133 -26 110 -2 137 -6 165 -23 52 -31 75 -77 79 -159 6 -93 -21 -149 -86 -185 -41 -23 -58 -25 -223 -29 l-178 -5 0 -223 0 -224 30 0 30 0 0 200 0 200 149 0 c171 0 215 11 273 67 51 50 72 115 66 207 -7 106 -45 169 -128 212 -27 14 -65 19 -165 22 -71 2 -133 1 -137 -4z"/>
<path d="M8172 2913 l-141 -318 226 -3 c124 -1 228 -1 230 1 4 5 -154 358 -166 370 -6 6 -121 -248 -121 -268 0 -4 14 -5 31 -3 29 3 34 9 58 70 l27 68 42 -85 c23 -47 42 -90 42 -95 0 -12 -270 -14 -270 -2 -1 18 185 451 191 444 3 -4 77 -170 164 -369 l159 -363 32 0 33 0 -18 43 c-68 158 -364 813 -370 820 -4 4 -71 -135 -149 -310z"/>
<path d="M4315 1673 c-30 -45 -80 -172 -89 -228 -17 -101 40 -126 119 -54 25 23 68 74 97 113 70 96 72 98 50 41 -66 -168 -68 -171 -147 -246 -91 -86 -135 -143 -135 -174 0 -50 49 -37 106 28 36 41 123 200 130 237 2 8 26 70 53 137 27 68 46 125 42 128 -5 2 -38 -40 -75 -95 -80 -121 -126 -174 -166 -190 -46 -19 -60 -8 -60 48 0 76 71 255 105 269 17 6 20 23 5 23 -5 0 -21 -17 -35 -37z m80 -370 c-41 -99 -116 -193 -154 -193 -35 0 -25 34 28 98 42 50 127 132 138 132 2 0 -4 -17 -12 -37z"/>
<path d="M9833 1669 c-62 -24 -153 -104 -189 -164 -28 -48 -48 -109 -33 -100 5 4 9 14 9 24 0 9 13 38 29 64 65 102 174 178 257 180 87 1 97 -45 27 -124 -45 -50 -161 -134 -171 -125 -2 3 12 44 32 92 20 48 34 89 31 92 -2 3 -8 -4 -11 -14 -23 -65 -78 -185 -90 -195 -8 -6 -14 -20 -14 -31 0 -11 -22 -72 -48 -137 -59 -140 -66 -159 -54 -146 4 6 21 42 37 80 16 39 39 93 52 122 l22 52 83 -38 c46 -22 97 -42 113 -45 34 -6 31 -5 -75 38 -80 33 -115 58 -107 79 3 8 37 35 75 60 125 81 182 144 182 200 0 53 -73 70 -157 36z"/>
<path d="M6360 1652 c-69 -45 -122 -105 -118 -133 2 -15 11 -25 23 -27 18 -2 18 -2 3 8 -10 6 -18 19 -18 30 0 22 79 94 133 121 35 18 37 18 37 2 0 -10 -25 -72 -56 -138 -70 -150 -117 -265 -110 -272 3 -3 8 3 12 13 9 27 64 152 118 269 70 154 64 183 -24 127z"/>
<path d="M3665 1614 c-8 -21 -39 -100 -68 -176 -28 -76 -56 -138 -61 -138 -14 0 1 80 20 101 9 10 12 19 6 19 -29 0 -53 -96 -33 -129 5 -8 5 -28 -1 -48 -12 -44 -4 -53 14 -16 8 15 21 26 29 24 53 -13 86 -11 117 9 57 36 78 126 36 161 -13 11 -8 20 34 63 54 56 72 84 72 115 0 29 -15 34 -49 17 -38 -20 -89 -83 -151 -187 -28 -46 -50 -79 -50 -73 0 6 25 74 55 150 30 76 53 140 50 142 -2 2 -11 -13 -20 -34z m155 -22 c0 -26 -49 -91 -94 -126 l-37 -28 22 -24 c26 -28 28 -81 3 -118 -19 -30 -74 -50 -113 -41 -27 6 -29 9 -28 53 0 26 2 41 5 33 2 -7 25 22 50 65 46 81 101 155 137 186 27 23 55 23 55 0z"/>
<path d="M9140 1632 c-39 -19 -80 -74 -80 -108 0 -14 -14 -34 -39 -53 -130 -103 -69 -286 72 -215 37 19 107 83 107 98 0 6 -13 -6 -30 -26 -33 -40 -102 -78 -143 -78 -37 0 -67 36 -67 79 0 42 34 106 71 133 22 17 29 17 53 7 23 -11 29 -10 43 4 16 15 14 18 -20 32 -38 16 -39 21 -14 73 21 44 110 71 123 37 11 -27 -5 -64 -34 -79 -18 -10 -21 -15 -10 -16 9 0 26 12 37 26 27 34 27 80 2 94 -26 13 -30 13 -71 -8z m-30 -142 c8 -5 11 -12 8 -16 -10 -9 -38 3 -38 16 0 12 10 13 30 0z"/>
<path d="M5700 1581 c-102 -33 -250 -117 -250 -142 0 -5 12 2 27 16 39 35 145 89 227 114 79 24 109 27 104 8 -2 -8 -60 -64 -129 -125 -174 -152 -240 -233 -210 -252 20 -12 61 3 184 68 148 79 177 96 177 104 0 3 -39 -16 -87 -44 -122 -70 -223 -118 -251 -118 -23 0 -23 0 -5 31 10 17 69 79 132 138 194 180 213 200 206 210 -9 16 -62 12 -125 -8z"/>
<path d="M6909 1546 c-36 -25 -82 -85 -93 -123 -7 -21 19 -101 29 -91 3 3 -2 19 -10 36 -23 44 -10 78 51 139 49 50 94 69 94 41 0 -7 -28 -72 -61 -145 -34 -74 -59 -136 -56 -139 3 -3 20 11 38 32 18 22 73 80 123 129 87 86 139 125 152 113 3 -4 -11 -41 -30 -83 -20 -43 -36 -82 -36 -88 0 -6 28 17 63 50 70 68 180 143 209 143 29 0 22 -32 -31 -132 -27 -51 -51 -105 -55 -119 -7 -34 23 -64 54 -54 28 9 94 69 122 109 12 18 0 9 -28 -21 -133 -141 -179 -91 -79 85 54 95 62 135 27 140 -34 5 -107 -36 -177 -100 -35 -32 -66 -58 -68 -58 -3 0 5 25 19 55 26 61 29 80 13 90 -21 14 -137 -83 -242 -204 -26 -29 -47 -51 -47 -48 0 2 22 53 50 113 27 60 50 119 50 132 0 30 -35 29 -81 -2z"/>
<path d="M7987 1543 c-39 -29 -79 -83 -91 -120 -7 -22 21 -99 32 -89 3 3 -1 12 -8 20 -22 28 -14 85 17 124 48 60 123 103 123 71 0 -7 -27 -73 -60 -147 -34 -74 -58 -137 -55 -140 3 -3 20 12 37 34 17 21 72 80 122 129 88 87 139 125 152 112 4 -3 -10 -41 -30 -83 -20 -42 -36 -81 -36 -87 0 -5 28 17 63 50 70 67 158 129 200 139 23 5 27 3 27 -16 0 -12 -21 -60 -46 -106 -60 -110 -67 -138 -45 -165 13 -16 23 -20 41 -14 28 9 104 77 132 119 11 17 -1 8 -26 -21 -53 -59 -110 -98 -131 -89 -27 10 -16 56 41 165 59 113 63 141 21 141 -33 0 -133 -63 -196 -123 -30 -29 -51 -45 -48 -37 3 8 16 38 28 66 25 58 21 85 -10 77 -28 -7 -135 -103 -207 -185 -32 -37 -60 -65 -61 -64 -2 2 19 52 47 112 27 60 50 119 50 132 0 31 -37 29 -83 -5z"/>
</g>
</svg>